<svg xmlns="http://www.w3.org/2000/svg" viewBox="0 0 256 256"><g fill="#bc2a26"><path d="M36 91l-2-1a66 66 0 00-10 27l7 7c2-3 8-16 5-33M36 131l1 1a54 54 0 0110-24l-3-6a76 76 0 00-8 29m8-33l10-12c-5-3-10-4-14-2l-4 3 1 3 7 8"/><path d="M38 94c3 18-5 32-6 32l3 3c0-5 2-17 8-29a69 69 0 00-5-6M39 135l1 2c2-1 9-7 9-16 1-4 0-7-1-11a51 51 0 00-9 25"/><path d="M56 216c-55-7-36-72-34-99l1-1c0-3 2-19 9-28l-4-4a1 1 0 010-1h2l4 4v-1l-2-5a1 1 0 012-1l2 5 4-3c4-2 10-1 16 3 4-3 8-4 13-5h2l-1 2c-5 0-9 2-12 4l3 2v2h-1l-4-3a40 40 0 00-11 13l3 6a48 48 0 0122-15h1v2a46 46 0 00-22 15c2 4 3 9 3 13a25 25 0 01-10 18l3 9c0 5-6 48 9 49 16 1 19-23 26-22 10 2 3 44-23 41M87 7a128 128 0 000 242"/></g><path fill="#dd492b" d="M129 216c-21 0-44-9-4-12 3-1 1-42 0-57-2-22-42-21-23-71h54c19 50-21 49-23 71-1 15-3 56 0 57 39 2 17 12-4 12M163 5a128 128 0 00-72 0v246a128 128 0 0072 0"/><g fill="#e87c35"><path d="M178 165c-1 1-2 3 0 5l4 3 3-11-7 3M184 196l1-1-5-2-1 2 5 1M188 187l4-10a44 44 0 01-7 0l-3 10h6m5 15l4-2 1-1-10-4-1 3 6 4m-9 1h4a32 31 0 00-3-2M200 158l5-12-9-3-5 15h9m-10 4l-4 11a32 32 0 008 0l4-11a61 61 0 00-8 0m21 3l-8-2-5 9c6-1 10-4 13-7"/><path d="M211 147c5 7 6 12 5 15 8 4 9 9 9 12-2 14-22 16-35 17l-1 1c6 1 11 2 12 6v4l-5 4c4 4 6 10 5 16l-2 2c-1-1-2-1-2-3 1-5-2-10-5-14h-10l-4 9-2-1 4-8a23 22 0 01-4-2l-2 8c-1 1-3 1-3-1l3-8a7 7 0 01-3-6c0-2 2-4 6-4v-2c-2-1-2-3-1-3 0-1 1-2 3-2l2-10-7-5c-2-5 0-8 1-9 2-3 6-4 11-5l4-13c-3 2-5 5-3 8a2 2 0 11-4 2c-2-4-1-9 5-13l3-2 20-71a4 4 0 118 2l-22 68 9 3 27-64a4 4 0 118 2l-30 66v1M167 6v244a128 128 0 000-244"/><path d="M212 161l-3-11-4 9 7 2m-16 16l-4 10c12-1 28-3 29-13 0-4-3-6-7-8-3 6-10 9-18 11m-18 21l-1 4a13 13 0 004 1l1-3-4-2"/></g></svg>