<svg xmlns="http://www.w3.org/2000/svg" viewBox="0 0 24 24"><path d="M6.9.1h1.2v6.8c0 .2-.1.4.2.4a1.1 1.1 0 00.8 0c.2-.1.3-.2.3-.4V.1c1.2 0 1.6.4 1.6 1v6.5c0 .4-.4.6-.7.9l-1.7 1v.2a4.8 4.8 0 000 1.7l.1.2a1 1 0 01.7 1V23c0 .7-.5 1.1-1.4 1.1h-.9c-.8-.1-1.3-.5-1.3-1.1V12.5c0-.4.3-.7.8-.9h.1V9.7l-.2-.2-2.1-1.3a.7.7 0 01-.4-.7V1.2C4 .6 4.1.1 5.6.1v6.8c0 .2 0 .4.3.4a1.4 1.4 0 00.9 0V.1zM20 4.7C20 2.1 18.3.1 16.2.1s-3.7 2-3.7 4.6a4.5 4.5 0 002.8 4.4v2.6l-.2.2a1.1 1.1 0 00-.7.9v10.3c0 .9 1 1 1.2 1h1.1c.4 0 1.2-.2 1.2-1V12.8a.9.9 0 00-.7-.9.3.3 0 01-.1-.2 11.3 11.3 0 010-2.6A4.4 4.4 0 0020 4.7z"/></svg>