<svg xmlns="http://www.w3.org/2000/svg" viewBox="0 0 24 24"><path d="M15.1 12.7c-.5-.5-1-.2-1-.7v-1.4c0-.1 0-.2.3-.2.8-.3 1-.8 1-1.6 0-.2 0-.2.2-.3.9 0 1.8-.6 1.8-1h-3c-.1 0-.3 0-.3-.3V5.6c.5 0 .5-.4.5-.4V3c.5-.2.7-.6.7-1.2 0 0 0-.2.2-.2.4 0 .3-.6 0-.6h-4c-.4 0-.4.6 0 .6l.1.2c0 .6.2 1 .7 1.2l.1.3v1.8s0 .4.4.4l.1.2v1.4c0 .2-.3.2-.4.2H9.7c0 .5.9 1 1.8 1 .2 0 .2.2.2.4 0 .8.2 1.3 1 1.6l.2.2V12c0 .5-.5.2-1 .7-3.2-2-4 1.1-4.2 3.5-.1 6-3.4 4.8-3.2 1.7.2-3.7 5-7.5 2.8-10.9-.3-.1-.1-.3-.1-.3L6 5c-.3-.4-.1-.2-.1-.6 0-.2-.2-.4-.4-.4s-.3 0-.3-.2c-.1-.2-.6 0-.5.3v.4c0 .2 0 .5.3.6.2 0 .2-.1.4.3l.9 1.8.2.2c1.7 3.3-2.6 6.2-3 10.4-.2 4.7 4.9 5.3 5-1.2 0-5.5 2.8-3.2 2.8-3.2-.5.8-.3 2 .2 2.5.4.3.4.6.1.7-4.1 1-2.1 4.5-1.8 4.8-1 0-1.1 1.4 0 1.4H17c1 0 1-1.4 0-1.4.4-.3 2.4-3.7-1.8-4.8-.3-.1-.4-.4 0-.7 0 0 1.7-2-.2-3.3z"/></svg>